# xmcd
#
# Track frame offsets:
# 150
# 1106
# 17242
# 32824
# 42806
# 56645
# 72577
# 89243
# 119469
# 132554
# 158381
# 161615
# 176048
# 187001
# 202904
# 227563
# 228724
#
# Disc length: 3220 seconds
#
#
# Revision: 0
# Processed by: cddbd v1.5.1PL0 Copyright (c) Steve Scherf et al.
# Submitted via: FreeRIP 2.00 
#
DISCID=e90c9211
DTITLE=Rollin in the Hay - Live at the Oasis II
DYEAR=1900
DGENRE=Bluegrass
TTITLE0=Improv
TTITLE1=Tennessee Flat Top Bob
TTITLE2=Steel Rails
TTITLE3=Old Milwaukee
TTITLE4=Columbus Stockade
TTITLE5=Shady Grove
TTITLE6=Yeah! That's It
TTITLE7=Goin Down That Road
TTITLE8=Climb That Mountain
TTITLE9=Change
TTITLE10=Improv
TTITLE11=Jerry And JB
TTITLE12=Mt. Girls
TTITLE13=Twigs And Seeds
TTITLE14=Honeysuckle
TTITLE15=Improv
TTITLE16=Little Maggie
EXTD=
EXTT0=
EXTT1=
EXTT2=
EXTT3=
EXTT4=
EXTT5=
EXTT6=
EXTT7=
EXTT8=
EXTT9=
EXTT10=
EXTT11=
EXTT12=
EXTT13=
EXTT14=
EXTT15=
EXTT16=
PLAYORDER=
